<svg width="20" height="20" viewBox="0 0 20 20" fill="none" xmlns="http://www.w3.org/2000/svg">
<rect width="20" height="20" rx="2" fill="url(#paint0_linear_13_331)"/>
<path d="M15.8539 5.64592C15.9005 5.69236 15.9374 5.74754 15.9626 5.80828C15.9878 5.86903 16.0008 5.93415 16.0008 5.99992C16.0008 6.06568 15.9878 6.13081 15.9626 6.19155C15.9374 6.2523 15.9005 6.30747 15.8539 6.35392L8.8539 13.3539C8.80745 13.4005 8.75228 13.4374 8.69153 13.4626C8.63079 13.4878 8.56567 13.5008 8.4999 13.5008C8.43413 13.5008 8.36901 13.4878 8.30827 13.4626C8.24752 13.4374 8.19234 13.4005 8.1459 13.3539L4.6459 9.85392C4.55201 9.76003 4.49927 9.63269 4.49927 9.49992C4.49927 9.36714 4.55201 9.2398 4.6459 9.14592C4.73979 9.05203 4.86712 8.99929 4.9999 8.99929C5.13267 8.99929 5.26001 9.05203 5.3539 9.14592L8.4999 12.2929L15.1459 5.64592C15.1923 5.59935 15.2475 5.56241 15.3083 5.5372C15.369 5.512 15.4341 5.49902 15.4999 5.49902C15.5657 5.49902 15.6308 5.512 15.6915 5.5372C15.7523 5.56241 15.8075 5.59935 15.8539 5.64592V5.64592Z" fill="white"/>
<defs>
<linearGradient id="paint0_linear_13_331" x1="10" y1="0" x2="10" y2="20" gradientUnits="userSpaceOnUse">
<stop stop-color="#848BEE"/>
<stop offset="1" stop-color="#6766FF"/>
</linearGradient>
</defs>
</svg>
