<svg width="16" height="16" viewBox="0 0 16 16" fill="none" xmlns="http://www.w3.org/2000/svg">
<path fill-rule="evenodd" clip-rule="evenodd" d="M8.35404 1.64592C8.4006 1.69236 8.43754 1.74754 8.46275 1.80828C8.48796 1.86903 8.50093 1.93415 8.50093 1.99992C8.50093 2.06568 8.48796 2.13081 8.46275 2.19155C8.43754 2.2523 8.4006 2.30747 8.35404 2.35392L2.70704 7.99992L8.35404 13.6459C8.44793 13.7398 8.50067 13.8671 8.50067 13.9999C8.50067 14.1327 8.44793 14.26 8.35404 14.3539C8.26015 14.4478 8.13281 14.5005 8.00004 14.5005C7.86726 14.5005 7.73993 14.4478 7.64604 14.3539L1.64604 8.35392C1.59948 8.30747 1.56253 8.2523 1.53733 8.19155C1.51212 8.13081 1.49915 8.06568 1.49915 7.99992C1.49915 7.93415 1.51212 7.86903 1.53733 7.80828C1.56253 7.74754 1.59948 7.69236 1.64604 7.64592L7.64604 1.64592C7.69248 1.59935 7.74766 1.56241 7.80841 1.5372C7.86915 1.512 7.93427 1.49902 8.00004 1.49902C8.06581 1.49902 8.13093 1.512 8.19167 1.5372C8.25242 1.56241 8.30759 1.59935 8.35404 1.64592Z" fill="#A2A9B0"/>
<path fill-rule="evenodd" clip-rule="evenodd" d="M12.354 1.64592C12.4006 1.69236 12.4375 1.74754 12.4628 1.80828C12.488 1.86903 12.5009 1.93415 12.5009 1.99992C12.5009 2.06568 12.488 2.13081 12.4628 2.19155C12.4375 2.2523 12.4006 2.30747 12.354 2.35392L6.70704 7.99992L12.354 13.6459C12.4005 13.6924 12.4374 13.7476 12.4626 13.8083C12.4877 13.8691 12.5007 13.9342 12.5007 13.9999C12.5007 14.0657 12.4877 14.1308 12.4626 14.1915C12.4374 14.2522 12.4005 14.3074 12.354 14.3539C12.3076 14.4004 12.2524 14.4373 12.1916 14.4624C12.1309 14.4876 12.0658 14.5005 12 14.5005C11.9343 14.5005 11.8692 14.4876 11.8085 14.4624C11.7477 14.4373 11.6925 14.4004 11.646 14.3539L5.64604 8.35392C5.59948 8.30747 5.56253 8.2523 5.53733 8.19155C5.51212 8.13081 5.49915 8.06568 5.49915 7.99992C5.49915 7.93415 5.51212 7.86903 5.53733 7.80828C5.56253 7.74754 5.59948 7.69236 5.64604 7.64592L11.646 1.64592C11.6925 1.59935 11.7477 1.56241 11.8084 1.5372C11.8692 1.512 11.9343 1.49902 12 1.49902C12.0658 1.49902 12.1309 1.512 12.1917 1.5372C12.2524 1.56241 12.3076 1.59935 12.354 1.64592Z" fill="#A2A9B0"/>
</svg>
