<svg width="16" height="74" viewBox="0 0 16 74" fill="none" xmlns="http://www.w3.org/2000/svg">
<path d="M9 1C9 0.447715 8.55228 2.41411e-08 8 0C7.44772 -2.41411e-08 7 0.447715 7 1L9 1ZM7.29289 73.7071C7.68341 74.0976 8.31658 74.0976 8.7071 73.7071L15.0711 67.3431C15.4616 66.9526 15.4616 66.3195 15.0711 65.9289C14.6805 65.5384 14.0474 65.5384 13.6569 65.9289L8 71.5858L2.34314 65.9289C1.95262 65.5384 1.31945 65.5384 0.928929 65.9289C0.538405 66.3195 0.538405 66.9526 0.928929 67.3431L7.29289 73.7071ZM7 3L7 4L9 4L9 3L7 3ZM9 7L9 6L7 6L7 7L9 7ZM7 11L7 12L9 12L9 11L7 11ZM9 15L9 14L7 14L7 15L9 15ZM7 19L7 20L9 20L9 19L7 19ZM9 23L9 22L7 22L7 23L9 23ZM7 27L7 28L9 28L9 27L7 27ZM9 31L9 30L7 30L7 31L9 31ZM7 35L7 36L9 36L9 35L7 35ZM9 39L9 38L7 38L7 39L9 39ZM7 43L7 44L9 44L9 43L7 43ZM9 47L9 46L7 46L7 47L9 47ZM7 51L7 52L9 52L9 51L7 51ZM9 55L9 54L7 54L7 55L9 55ZM7 59L7 60L9 60L9 59L7 59ZM9 63L9 62L7 62L7 63L9 63ZM7 67L7 68L9 68L9 67L7 67ZM9 71L9 70L7 70L7 71L9 71ZM7 1L7 3L9 3L9 1L7 1ZM7 7L7 11L9 11L9 7L7 7ZM7 15L7 19L9 19L9 15L7 15ZM7 23L7 27L9 27L9 23L7 23ZM7 31L7 35L9 35L9 31L7 31ZM7 39L7 43L9 43L9 39L7 39ZM7 47L7 51L9 51L9 47L7 47ZM7 55L7 59L9 59L9 55L7 55ZM7 63L7 67L9 67L9 63L7 63ZM7 71L7 73L9 73L9 71L7 71Z" fill="#D9324E"/>
</svg>
