<svg width="16" height="57" viewBox="0 0 16 57" fill="none" xmlns="http://www.w3.org/2000/svg">
<path d="M9 1C9 0.447715 8.55228 2.41411e-08 8 0C7.44772 -2.41411e-08 7 0.447715 7 1L9 1ZM7.29289 56.7071C7.68342 57.0976 8.31658 57.0976 8.7071 56.7071L15.0711 50.3431C15.4616 49.9526 15.4616 49.3195 15.0711 48.9289C14.6805 48.5384 14.0474 48.5384 13.6569 48.9289L8 54.5858L2.34314 48.9289C1.95262 48.5384 1.31945 48.5384 0.92893 48.9289C0.538406 49.3195 0.538406 49.9526 0.92893 50.3431L7.29289 56.7071ZM7 2.96429L7 3.96429L9 3.96429L9 2.96429L7 2.96429ZM9 6.89286L9 5.89286L7 5.89286L7 6.89286L9 6.89286ZM7 10.8214L7 11.8214L9 11.8214L9 10.8214L7 10.8214ZM9 14.75L9 13.75L7 13.75L7 14.75L9 14.75ZM7 18.6786L7 19.6786L9 19.6786L9 18.6786L7 18.6786ZM9 22.6071L9 21.6071L7 21.6071L7 22.6071L9 22.6071ZM7 26.5357L7 27.5357L9 27.5357L9 26.5357L7 26.5357ZM9 30.4643L9 29.4643L7 29.4643L7 30.4643L9 30.4643ZM7 34.3929L7 35.3929L9 35.3929L9 34.3929L7 34.3929ZM9 38.3214L9 37.3214L7 37.3214L7 38.3214L9 38.3214ZM7 42.25L7 43.25L9 43.25L9 42.25L7 42.25ZM9 46.1786L9 45.1786L7 45.1786L7 46.1786L9 46.1786ZM7 50.1071L7 51.1071L9 51.1071L9 50.1071L7 50.1071ZM9 54.0357L9 53.0357L7 53.0357L7 54.0357L9 54.0357ZM7 1L7 2.96429L9 2.96429L9 1L7 1ZM7 6.89286L7 10.8214L9 10.8214L9 6.89286L7 6.89286ZM7 14.75L7 18.6786L9 18.6786L9 14.75L7 14.75ZM7 22.6071L7 26.5357L9 26.5357L9 22.6071L7 22.6071ZM7 30.4643L7 34.3929L9 34.3929L9 30.4643L7 30.4643ZM7 38.3214L7 42.25L9 42.25L9 38.3214L7 38.3214ZM7 46.1786L7 50.1071L9 50.1071L9 46.1786L7 46.1786ZM7 54.0357L7 56L9 56L9 54.0357L7 54.0357Z" fill="white"/>
</svg>
