<svg width="20" height="20" viewBox="0 0 20 20" fill="none" xmlns="http://www.w3.org/2000/svg">
<path fill-rule="evenodd" clip-rule="evenodd" d="M18.75 10.0001C18.75 9.8343 18.6842 9.67533 18.567 9.55812C18.4498 9.44091 18.2908 9.37506 18.125 9.37506H3.38377L7.31752 5.44256C7.37563 5.38445 7.42172 5.31546 7.45317 5.23954C7.48462 5.16361 7.50081 5.08224 7.50081 5.00006C7.50081 4.91788 7.48462 4.8365 7.45317 4.76058C7.42172 4.68465 7.37563 4.61567 7.31752 4.55756C7.25941 4.49945 7.19042 4.45335 7.1145 4.4219C7.03857 4.39045 6.9572 4.37427 6.87502 4.37427C6.79284 4.37427 6.71146 4.39045 6.63554 4.4219C6.55961 4.45335 6.49063 4.49945 6.43252 4.55756L1.43252 9.55756C1.37431 9.61561 1.32814 9.68458 1.29663 9.76052C1.26512 9.83645 1.2489 9.91785 1.2489 10.0001C1.2489 10.0823 1.26512 10.1637 1.29663 10.2396C1.32814 10.3155 1.37431 10.3845 1.43252 10.4426L6.43252 15.4426C6.49063 15.5007 6.55961 15.5468 6.63554 15.5782C6.71146 15.6097 6.79284 15.6258 6.87502 15.6258C6.9572 15.6258 7.03857 15.6097 7.1145 15.5782C7.19042 15.5468 7.25941 15.5007 7.31752 15.4426C7.37563 15.3844 7.42172 15.3155 7.45317 15.2395C7.48462 15.1636 7.50081 15.0822 7.50081 15.0001C7.50081 14.9179 7.48462 14.8365 7.45317 14.7606C7.42172 14.6847 7.37563 14.6157 7.31752 14.5576L3.38377 10.6251H18.125C18.2908 10.6251 18.4498 10.5592 18.567 10.442C18.6842 10.3248 18.75 10.1658 18.75 10.0001Z" fill="#3577F8"/>
</svg>
