<svg width="16" height="16" viewBox="0 0 16 16" fill="none" xmlns="http://www.w3.org/2000/svg">
<path fill-rule="evenodd" clip-rule="evenodd" d="M15 7.99999C15 7.86738 14.9474 7.74021 14.8536 7.64644C14.7598 7.55267 14.6326 7.49999 14.5 7.49999H2.70704L5.85404 4.35399C5.90053 4.3075 5.9374 4.25231 5.96256 4.19157C5.98772 4.13083 6.00067 4.06573 6.00067 3.99999C6.00067 3.93425 5.98772 3.86915 5.96256 3.80841C5.9374 3.74767 5.90053 3.69248 5.85404 3.64599C5.80755 3.5995 5.75236 3.56263 5.69162 3.53747C5.63088 3.51231 5.56578 3.49936 5.50004 3.49936C5.4343 3.49936 5.36919 3.51231 5.30846 3.53747C5.24772 3.56263 5.19253 3.5995 5.14604 3.64599L1.14604 7.64599C1.09948 7.69244 1.06253 7.74761 1.03733 7.80836C1.01212 7.8691 0.999146 7.93422 0.999146 7.99999C0.999146 8.06576 1.01212 8.13088 1.03733 8.19162C1.06253 8.25237 1.09948 8.30754 1.14604 8.35399L5.14604 12.354C5.19253 12.4005 5.24772 12.4374 5.30846 12.4625C5.36919 12.4877 5.4343 12.5006 5.50004 12.5006C5.56578 12.5006 5.63088 12.4877 5.69162 12.4625C5.75236 12.4374 5.80755 12.4005 5.85404 12.354C5.90053 12.3075 5.9374 12.2523 5.96256 12.1916C5.98772 12.1308 6.00067 12.0657 6.00067 12C6.00067 11.9342 5.98772 11.8691 5.96256 11.8084C5.9374 11.7477 5.90053 11.6925 5.85404 11.646L2.70704 8.49999H14.5C14.6326 8.49999 14.7598 8.44731 14.8536 8.35354C14.9474 8.25978 15 8.1326 15 7.99999Z" fill="#A2A9B0"/>
</svg>
