<svg width="204" height="32" viewBox="0 0 204 32" fill="none" xmlns="http://www.w3.org/2000/svg">
<path d="M181.25 12.73H163.44V10.55H169.9V7.97001H172.66V10.63H176.66C176.89 10.26 177.02 9.60001 177.06 8.63001C177.1 7.67001 177.12 6.65001 177.12 5.59001H165.05V3.32001H179.84V5.15001C179.85 6.10001 179.82 7.03001 179.73 7.97001C179.65 8.90001 179.49 9.77001 179.26 10.59H181.25V12.73ZM172.35 14.24C174.43 14.24 176.24 14.5 177.76 15.03C179.28 15.55 180.04 16.59 180.04 18.15C180.04 19.71 179.28 20.73 177.76 21.25C176.24 21.77 174.44 22.04 172.35 22.04C170.26 22.04 168.41 21.78 166.89 21.25C165.37 20.73 164.61 19.69 164.61 18.15C164.61 16.61 165.37 15.55 166.89 15.03C168.41 14.5 170.23 14.24 172.35 14.24ZM172.35 19.94C174.42 19.94 175.78 19.76 176.45 19.41C177.11 19.05 177.44 18.64 177.44 18.15C177.44 17.66 177.11 17.25 176.45 16.88C175.79 16.52 174.42 16.33 172.35 16.33C170.28 16.33 168.94 16.51 168.25 16.88C167.56 17.25 167.21 17.67 167.21 18.17C167.21 18.63 167.56 19.05 168.25 19.4C168.94 19.76 170.31 19.93 172.35 19.93V19.94Z" fill="#607B99"/>
<path d="M101.59 22.38H98.96V12.99H96.88V22.37H94.26V19.49C93.55 19.68 92.96 19.79 92.51 19.83C92.06 19.87 91.57 19.91 91.04 19.97H85.13V3.90997H92.18V6.15997H87.84V17.7H92.57C93.06 17.7 93.46 17.59 93.78 17.36C94.1 17.13 94.26 16.82 94.26 16.41V2.96997H96.88V10.72H98.96V2.96997H101.59V22.38Z" fill="#607B99"/>
<path d="M115.31 6.85001H113.55C113.87 7.22001 114.11 7.66001 114.28 8.16001C114.45 8.65001 114.53 9.19001 114.53 9.75001C114.53 11.1 114.07 12.21 113.15 13.07C112.23 13.93 111.02 14.36 109.53 14.36C108.04 14.36 106.84 13.94 105.93 13.09C105.03 12.24 104.57 11.13 104.57 9.76001C104.57 9.19001 104.65 8.66001 104.82 8.17001C104.99 7.68001 105.22 7.24001 105.53 6.86001H103.88V4.74001H108.22V2.82001H110.91V4.74001H115.29V6.86001L115.31 6.85001ZM119.96 22.54H105.31V15.45H108.01V20.29H119.97V22.54H119.96ZM109.56 12.15C110.41 12.15 111.02 11.9 111.37 11.39C111.73 10.88 111.91 10.34 111.91 9.75001C111.91 9.16001 111.73 8.60001 111.36 8.09001C110.99 7.58001 110.39 7.33001 109.53 7.33001C108.67 7.33001 108.09 7.59001 107.73 8.09001C107.36 8.60001 107.18 9.15001 107.18 9.75001C107.18 10.35 107.36 10.88 107.73 11.39C108.1 11.9 108.7 12.15 109.56 12.15ZM122.5 10.49H120.03V17.02H117.36V3.38001H120.03V8.27001H122.5V10.5V10.49Z" fill="#607B99"/>
<path d="M134.94 13.56H124.67V3.65002H134.94V13.56ZM141.11 22.27H126V15.2H128.69V20.02H141.1V22.27H141.11ZM132.24 11.34V5.90002H127.35V11.34H132.24ZM141.1 16.75H138.41V3.08002H141.1V16.74V16.75Z" fill="#607B99"/>
<path d="M161.02 12.56H153.47V14.98H159.61V22.03H156.89V17.23H144.19V14.98H150.78V12.56H143.22V10.31H156.37C156.65 9.71 156.8 9.05 156.84 8.33C156.88 7.6 156.9 6.69 156.9 5.58H144.82V3.31H159.61V5.45C159.61 5.92 159.6 6.56 159.57 7.39C159.55 8.22 159.39 9.19 159.1 10.31H161.02V12.56Z" fill="#607B99"/>
<path d="M201.19 13.2H193.64V17.63H190.95V13.2H183.39V10.93H196.54C196.86 10.19 197.03 9.40998 197.04 8.57998C197.05 7.75998 197.06 6.78998 197.06 5.68998H184.99V3.41998H199.78V5.24998C199.78 6.27998 199.75 7.26998 199.69 8.19998C199.63 9.12998 199.47 10.04 199.21 10.93H201.2V13.2H201.19ZM200.76 21.93H184.75V15.01H187.42V19.68H200.75V21.93H200.76Z" fill="#607B99"/>
<path d="M41.44 3.20001L44.5 11.58L52.43 11.5L46.19 16.91L48.36 24.54L41.08 20.49L34.47 24.54L36.64 16.91L30.08 11.58H37.4L41.44 3.20001Z" fill="#A8A8A7"/>
<path d="M27.87 11.27L29.87 17.36L6.74999 8.43L0.109985 0.25L27.87 11.27Z" fill="#A8A8A7"/>
<path d="M26.89 11.74L28.38 15.9L7.27 7.69001L2.81 2.14001L26.89 11.74Z" fill="url(#paint0_linear_6_1918)"/>
<path d="M33.84 6.52999L28.99 10.05L8.89001 2.10999L24.85 2.45999L33.84 6.52999Z" fill="#A8A8A7"/>
<path d="M32.23 6.71L28.76 9.09L13.4 3.06L24.94 3.3L32.23 6.71Z" fill="url(#paint1_linear_6_1918)"/>
<path d="M54.69 11.3L52.7 17.38L75.85 8.16002L82.52 0.0200195L54.69 11.3Z" fill="#A8A8A7"/>
<path d="M55.68 11.76L54.18 15.93L75.34 7.41997L79.81 1.90997L55.68 11.76Z" fill="url(#paint2_linear_6_1918)"/>
<path d="M48.74 6.42L53.59 9.94L73.33 2.13L57.71 2.32L48.74 6.42Z" fill="#A8A8A7"/>
<path d="M50.35 6.60001L53.81 8.98001L68.87 3.07001L57.62 3.16001L50.35 6.60001Z" fill="url(#paint3_linear_6_1918)"/>
<path d="M41.41 5.22998L43.95 12.19L50.53 12.12L45.35 16.61L47.15 22.95L41.11 19.58L35.62 22.95L37.43 16.61L31.98 12.19H38.05L41.41 5.22998Z" fill="url(#paint4_linear_6_1918)"/>
<path d="M8.89999 2.10999L24.85 2.46999L24.93 3.29999L13.4 3.05999L8.89999 2.10999Z" fill="#EDEDED"/>
<path d="M13.4 3.05999L8.89999 2.10999L28.99 10.05L28.77 9.08999L13.4 3.05999Z" fill="#9D9D9C"/>
<path d="M28.77 9.09003L28.99 10.05L33.84 6.53003L32.23 6.71003L28.77 9.09003Z" fill="#A8A8A7"/>
<path d="M32.23 6.70997L33.84 6.52997L24.85 2.46997L24.93 3.29997L32.23 6.70997Z" fill="#DADADA"/>
<path d="M73.32 2.14001L57.7 2.33001L57.62 3.16001L68.86 3.06001L73.32 2.14001Z" fill="#DADADA"/>
<path d="M68.86 3.06001L73.32 2.14001L53.59 9.94001L53.81 8.97001L68.86 3.06001Z" fill="#878787"/>
<path d="M53.81 8.96998L53.59 9.93998L48.74 6.41998L50.34 6.59998L53.81 8.96998Z" fill="#A8A8A7"/>
<path d="M50.34 6.60002L48.74 6.42002L57.7 2.33002L57.62 3.16002L50.34 6.60002Z" fill="#EDEDED"/>
<path d="M0.109985 0.23999L27.88 11.27L26.87 11.74L2.80999 2.13999L0.109985 0.23999Z" fill="#EDEDED"/>
<path d="M0 0.169983L2.81 2.13998L7.27 7.69998L6.75 8.42998L0 0.169983Z" fill="#DADADA"/>
<path d="M7.27 7.70001L6.75 8.43001L29.87 17.36L28.38 15.89L7.27 7.70001Z" fill="#9D9D9C"/>
<path d="M29.87 17.36L28.38 15.89L26.87 11.74L27.88 11.27L29.87 17.36Z" fill="#C6C6C6"/>
<path d="M82.53 0L54.7 11.28L55.71 11.75L79.83 1.89L82.53 0Z" fill="#E3E3E3"/>
<path d="M75.35 7.40997L75.87 8.14997L52.71 17.37L54.2 15.9L75.35 7.40997Z" fill="#929292"/>
<path d="M52.71 17.37L54.2 15.9L55.71 11.75L54.7 11.28L52.71 17.37Z" fill="#EDEDED"/>
<path d="M21.12 15.36L30.26 18.82L29.42 19.44L26.61 19L21.12 15.36Z" fill="#DADADA"/>
<path d="M21.12 15.36L32.95 26.96L31.09 23.8L26.61 19L21.12 15.36Z" fill="#DADADA"/>
<path d="M30.26 18.82L29.42 19.44L31.09 23.8L32.95 26.96L30.26 18.82Z" fill="#C6C6C6"/>
<path d="M33.45 27.55H49.47L43.61 28.34H38.77L33.45 27.55Z" fill="#E3E3E3"/>
<path d="M33.45 27.55L38.77 28.34L41.18 29.9L41.16 30.69L33.45 27.55Z" fill="#BDBCBC"/>
<path d="M41.16 30.69L41.18 29.9L43.61 28.34L49.47 27.55L41.16 30.69Z" fill="#929292"/>
<path d="M41.44 3.20001L41.41 5.22001L38.05 12.19L37.39 11.58L41.44 3.20001Z" fill="#E3E3E3"/>
<path d="M37.39 11.58L30.08 11.57L31.98 12.18L38.05 12.19L37.39 11.58Z" fill="#DADADA"/>
<path d="M30.08 11.57L31.98 12.18L37.43 16.6L36.64 16.9L30.08 11.57Z" fill="#BDBCBC"/>
<path d="M36.64 16.9L37.43 16.6L35.62 22.95L34.47 24.54L36.64 16.9Z" fill="#E3E3E3"/>
<path d="M34.47 24.54L35.62 22.95L41.1 19.58L41.07 20.49L34.47 24.54Z" fill="#878787"/>
<path d="M41.1 19.58L41.07 20.49L48.36 24.54L47.16 22.95L41.1 19.58Z" fill="#BDBCBC"/>
<path d="M48.36 24.54L47.16 22.95L45.34 16.61L46.18 16.91L48.36 24.54Z" fill="#9D9D9C"/>
<path d="M45.34 16.61L46.18 16.91L52.42 11.5L50.52 12.12L45.34 16.61Z" fill="#878787"/>
<path d="M52.42 11.5L50.52 12.12L43.95 12.19L44.5 11.57L52.42 11.5Z" fill="#DADADA"/>
<path d="M43.95 12.19L44.5 11.57L41.44 3.20001L41.41 5.22001L43.95 12.19Z" fill="#9D9D9C"/>
<path d="M41.24 7.20003L41.4 6.34003L42.35 8.90003L41.24 7.20003Z" fill="#DADADA"/>
<path d="M41.1 8.09001L41.24 7.20001L42.35 8.90001L41.1 8.09001Z" fill="#EDEDED"/>
<path d="M41.24 7.20003L41.4 6.34003L38.03 13.27L41.24 7.20003Z" fill="white"/>
<path d="M41.24 7.20001L41.1 8.09001L38.03 13.27L41.24 7.20001Z" fill="#C6C6C6"/>
<path d="M33.93 12.96L33.12 12.63H35.8L33.93 12.96Z" fill="white"/>
<path d="M34.77 13.28L33.93 12.96L35.8 12.63L34.77 13.28Z" fill="#C6C6C6"/>
<path d="M33.93 12.96L33.12 12.63L39.12 17.53L33.93 12.96Z" fill="#DADADA"/>
<path d="M33.93 12.96L34.77 13.28L39.12 17.53L33.93 12.96Z" fill="#F6F6F6"/>
<path d="M36.87 21.38L36.31 22.04L37.03 19.51L36.87 21.38Z" fill="#F6F6F6"/>
<path d="M37.45 20.7L36.87 21.38L37.03 19.51L37.45 20.7Z" fill="#DADADA"/>
<path d="M36.87 21.38L36.31 22.04L42.9 17.99L36.87 21.38Z" fill="#C3C4C1"/>
<path d="M36.87 21.38L37.45 20.7L42.9 17.99L36.87 21.38Z" fill="white"/>
<path d="M46.02 21.33L46.48 22.07L44.11 20.73L46.02 21.33Z" fill="#DADADA"/>
<path d="M45.54 20.58L46.02 21.33L44.11 20.73L45.54 20.58Z" fill="#F6F6F6"/>
<path d="M46.02 21.33L46.48 22.07L44.35 14.63L46.02 21.33Z" fill="#C3C4C1"/>
<path d="M46.02 21.33L45.54 20.58L44.35 14.63L46.02 21.33Z" fill="white"/>
<path d="M48.52 12.88L49.35 12.61L47.35 14.3L48.52 12.88Z" fill="#C3C4C1"/>
<path d="M47.67 13.16L48.52 12.88L47.35 14.3L47.67 13.16Z" fill="#EDEDED"/>
<path d="M48.52 12.88L49.35 12.61L41.61 12.64L48.52 12.88Z" fill="white"/>
<path d="M48.52 12.88L47.67 13.16L41.61 12.64L48.52 12.88Z" fill="#DADADA"/>
<path d="M24.87 17.85L29.43 19.45L31.1 23.81L24.87 17.85Z" fill="url(#paint5_linear_6_1918)"/>
<path d="M36.5 28L45.74 28.05L41.18 29.9L36.5 28Z" fill="url(#paint6_linear_6_1918)"/>
<path d="M61.41 15.55L52.27 19L53.11 19.62L55.92 19.18L61.41 15.55Z" fill="#E3E3E3"/>
<path d="M61.41 15.55L49.58 27.15L51.44 23.98L55.92 19.18L61.41 15.55Z" fill="#929292"/>
<path d="M52.27 19L53.11 19.62L51.44 23.98L49.58 27.15L52.27 19Z" fill="#EDEDED"/>
<path d="M57.66 18.03L53.11 19.63L51.43 24L57.66 18.03Z" fill="url(#paint7_linear_6_1918)"/>
<path d="M84.99 30.48V25.31H87.04C87.56 25.31 87.94 25.36 88.16 25.45C88.38 25.54 88.57 25.7 88.71 25.93C88.85 26.16 88.93 26.43 88.93 26.75C88.93 27.15 88.82 27.48 88.6 27.72C88.38 27.97 88.07 28.12 87.66 28.18C87.87 28.31 88.04 28.46 88.18 28.62C88.32 28.78 88.5 29.06 88.74 29.46L89.33 30.47H88.17L87.46 29.35C87.21 28.95 87.03 28.69 86.94 28.58C86.85 28.48 86.75 28.41 86.65 28.37C86.55 28.33 86.39 28.31 86.16 28.31H85.96V30.47H84.99V30.48ZM85.96 27.49H86.68C87.12 27.49 87.4 27.47 87.52 27.44C87.64 27.41 87.74 27.34 87.81 27.23C87.89 27.13 87.92 26.99 87.92 26.82C87.92 26.66 87.88 26.53 87.81 26.43C87.74 26.33 87.63 26.26 87.5 26.22C87.41 26.2 87.15 26.18 86.71 26.18H85.95V27.48L85.96 27.49Z" fill="#607B99"/>
<path d="M89.86 30.48V25.31H93.44V26.19H90.83V27.34H93.26V28.21H90.83V29.61H93.53V30.48H89.86Z" fill="#607B99"/>
<path d="M94.35 30.48V25.31H95.92C96.5 25.31 96.88 25.34 97.06 25.38C97.35 25.46 97.58 25.63 97.77 25.89C97.95 26.15 98.05 26.49 98.05 26.9C98.05 27.27 97.97 27.59 97.81 27.84C97.65 28.09 97.45 28.27 97.21 28.37C96.97 28.47 96.55 28.52 95.97 28.52H95.33V30.47H94.36L94.35 30.48ZM95.32 26.18V27.65H95.86C96.22 27.65 96.47 27.63 96.6 27.59C96.73 27.55 96.84 27.46 96.92 27.35C97 27.23 97.04 27.09 97.04 26.92C97.04 26.75 97 26.6 96.91 26.49C96.82 26.37 96.72 26.29 96.59 26.25C96.46 26.21 96.2 26.19 95.79 26.19H95.32V26.18Z" fill="#607B99"/>
<path d="M98.85 25.31H99.82V28.11C99.82 28.54 99.83 28.83 99.86 28.96C99.9 29.19 100.01 29.36 100.17 29.49C100.33 29.61 100.54 29.68 100.81 29.68C101.04 29.68 101.22 29.64 101.36 29.55C101.5 29.46 101.6 29.34 101.65 29.18C101.7 29.02 101.73 28.69 101.73 28.17V25.31H102.7V28.03C102.7 28.73 102.66 29.23 102.57 29.54C102.49 29.85 102.29 30.1 102 30.29C101.7 30.48 101.31 30.58 100.83 30.58C100.35 30.58 99.93 30.5 99.65 30.34C99.37 30.19 99.16 29.96 99.03 29.67C98.9 29.38 98.84 28.85 98.84 28.08V25.32L98.85 25.31Z" fill="#607B99"/>
<path d="M103.53 25.31H105.46C105.99 25.31 106.36 25.35 106.57 25.44C106.78 25.53 106.97 25.67 107.11 25.89C107.26 26.1 107.33 26.35 107.33 26.62C107.33 26.87 107.27 27.09 107.14 27.3C107.02 27.5 106.85 27.65 106.65 27.75C106.93 27.84 107.15 27.99 107.31 28.21C107.47 28.42 107.55 28.69 107.55 29C107.55 29.38 107.45 29.69 107.24 29.96C107.04 30.22 106.79 30.38 106.51 30.44C106.31 30.48 105.86 30.5 105.15 30.5H103.51V25.33L103.53 25.31ZM104.5 26.17V27.37H105.14C105.53 27.37 105.77 27.37 105.86 27.35C106.03 27.33 106.16 27.26 106.25 27.16C106.34 27.06 106.39 26.92 106.39 26.75C106.39 26.6 106.35 26.47 106.28 26.38C106.2 26.28 106.11 26.22 106 26.2C105.89 26.18 105.58 26.16 105.06 26.16H104.5V26.17ZM104.5 28.23V29.61H105.41C105.81 29.61 106.06 29.59 106.17 29.56C106.28 29.52 106.38 29.45 106.45 29.35C106.53 29.24 106.56 29.11 106.56 28.94C106.56 28.77 106.52 28.63 106.44 28.52C106.36 28.41 106.25 28.34 106.11 28.3C105.98 28.26 105.7 28.24 105.28 28.24H104.49L104.5 28.23Z" fill="#607B99"/>
<path d="M108.35 30.48V25.36H109.32V29.61H111.75V30.48H108.35Z" fill="#607B99"/>
<path d="M112.65 30.48V25.31H113.62V30.48H112.65Z" fill="#607B99"/>
<path d="M117.75 28.58L118.69 28.9C118.54 29.48 118.3 29.9 117.96 30.17C117.62 30.44 117.2 30.57 116.69 30.57C116.06 30.57 115.55 30.36 115.16 29.93C114.71 29.44 114.48 28.78 114.48 27.94C114.48 27.06 114.71 26.37 115.16 25.87C115.56 25.44 116.08 25.22 116.75 25.22C117.29 25.22 117.74 25.38 118.11 25.71C118.37 25.94 118.56 26.28 118.68 26.74L117.72 26.99C117.66 26.71 117.54 26.5 117.35 26.35C117.17 26.2 116.95 26.13 116.7 26.13C116.34 26.13 116.05 26.26 115.83 26.54C115.61 26.81 115.49 27.26 115.49 27.89C115.49 28.52 115.6 29 115.82 29.28C116.04 29.55 116.33 29.69 116.68 29.69C116.94 29.69 117.16 29.6 117.35 29.43C117.54 29.25 117.67 28.98 117.76 28.6L117.75 28.58Z" fill="#607B99"/>
<path d="M122.38 27.93C122.38 27.31 122.49 26.81 122.69 26.41C122.9 26.01 123.17 25.71 123.5 25.52C123.83 25.32 124.24 25.23 124.72 25.23C125.41 25.23 125.97 25.46 126.41 25.93C126.84 26.39 127.06 27.05 127.06 27.91C127.06 28.77 126.83 29.45 126.37 29.94C125.97 30.37 125.42 30.58 124.72 30.58C124.02 30.58 123.47 30.37 123.07 29.94C122.61 29.46 122.38 28.79 122.38 27.94V27.93ZM123.38 27.9C123.38 28.49 123.51 28.94 123.77 29.23C124.03 29.53 124.35 29.68 124.73 29.68C125.11 29.68 125.43 29.53 125.68 29.24C125.93 28.95 126.06 28.49 126.06 27.88C126.06 27.27 125.94 26.84 125.69 26.55C125.44 26.26 125.12 26.12 124.73 26.12C124.34 26.12 124.01 26.26 123.76 26.55C123.51 26.84 123.39 27.29 123.39 27.89L123.38 27.9Z" fill="#607B99"/>
<path d="M128 30.48V25.31H131.31V26.19H128.98V27.41H131V28.28H128.98V30.48H128.01H128Z" fill="#607B99"/>
<path d="M135.08 30.48V25.31H136.05V27.61L138.03 25.31H139.35L137.54 27.31L139.43 30.48H138.16L136.85 28.05L136.06 28.92V30.48H135.09H135.08Z" fill="#607B99"/>
<path d="M139.73 27.93C139.73 27.31 139.83 26.81 140.04 26.41C140.25 26.01 140.52 25.71 140.85 25.52C141.18 25.32 141.59 25.23 142.06 25.23C142.75 25.23 143.31 25.46 143.75 25.93C144.19 26.39 144.4 27.05 144.4 27.91C144.4 28.77 144.17 29.45 143.71 29.94C143.31 30.37 142.76 30.58 142.06 30.58C141.36 30.58 140.81 30.37 140.41 29.94C139.95 29.46 139.72 28.79 139.72 27.94L139.73 27.93ZM140.73 27.9C140.73 28.49 140.86 28.94 141.12 29.23C141.38 29.53 141.7 29.68 142.08 29.68C142.46 29.68 142.78 29.53 143.03 29.24C143.28 28.95 143.41 28.49 143.41 27.88C143.41 27.27 143.29 26.84 143.04 26.55C142.8 26.26 142.47 26.12 142.08 26.12C141.69 26.12 141.36 26.26 141.11 26.55C140.86 26.84 140.74 27.29 140.74 27.89L140.73 27.9Z" fill="#607B99"/>
<path d="M145.26 30.48V25.31H147.31C147.84 25.31 148.21 25.36 148.43 25.45C148.65 25.54 148.84 25.7 148.98 25.93C149.12 26.16 149.2 26.43 149.2 26.75C149.2 27.15 149.09 27.48 148.87 27.72C148.65 27.97 148.34 28.12 147.93 28.18C148.14 28.31 148.31 28.46 148.45 28.62C148.58 28.78 148.77 29.06 149.01 29.46L149.6 30.47H148.44L147.73 29.35C147.48 28.95 147.3 28.69 147.21 28.58C147.12 28.48 147.02 28.41 146.92 28.37C146.82 28.33 146.66 28.31 146.43 28.31H146.23V30.47H145.26V30.48ZM146.23 27.49H146.95C147.39 27.49 147.67 27.47 147.79 27.44C147.91 27.41 148.01 27.34 148.08 27.23C148.16 27.13 148.19 26.99 148.19 26.82C148.19 26.66 148.15 26.53 148.08 26.43C148 26.33 147.9 26.26 147.77 26.22C147.68 26.2 147.42 26.18 146.98 26.18H146.22V27.48L146.23 27.49Z" fill="#607B99"/>
<path d="M150.43 30.48V25.31H154.01V26.19H151.4V27.34H153.83V28.21H151.4V29.61H154.1V30.48H150.43Z" fill="#607B99"/>
<path d="M159.7 30.48H158.65L158.24 29.31H156.3L155.9 30.48H154.86L156.73 25.31H157.77L159.7 30.48ZM157.91 28.43L157.24 26.51L156.59 28.43H157.91Z" fill="#607B99"/>
<path d="M168.09 30.48H167.04L166.63 29.31H164.69L164.29 30.48H163.25L165.12 25.31H166.16L168.09 30.48ZM166.3 28.43L165.63 26.51L164.98 28.43H166.3Z" fill="#607B99"/>
<path d="M168.88 30.48V25.31H169.85V30.48H168.88Z" fill="#607B99"/>
<path d="M170.95 30.48V25.31H173C173.52 25.31 173.9 25.36 174.13 25.45C174.35 25.54 174.54 25.7 174.68 25.93C174.83 26.16 174.9 26.43 174.9 26.75C174.9 27.15 174.79 27.48 174.57 27.72C174.35 27.97 174.03 28.12 173.63 28.18C173.84 28.31 174.01 28.46 174.15 28.62C174.28 28.78 174.47 29.06 174.71 29.46L175.3 30.47H174.14L173.43 29.35C173.18 28.95 173 28.69 172.91 28.58C172.82 28.48 172.72 28.41 172.62 28.37C172.52 28.33 172.36 28.31 172.13 28.31H171.93V30.47H170.96L170.95 30.48ZM171.92 27.49H172.64C173.08 27.49 173.36 27.47 173.48 27.44C173.6 27.41 173.7 27.34 173.77 27.23C173.85 27.13 173.88 26.99 173.88 26.82C173.88 26.66 173.84 26.53 173.77 26.43C173.7 26.33 173.59 26.26 173.46 26.22C173.37 26.2 173.1 26.18 172.67 26.18H171.91V27.48L171.92 27.49Z" fill="#607B99"/>
<path d="M178.48 30.48V25.31H181.79V26.19H179.45V27.41H181.47V28.28H179.45V30.48H178.48Z" fill="#607B99"/>
<path d="M182.58 27.93C182.58 27.31 182.68 26.81 182.89 26.41C183.1 26.01 183.37 25.71 183.7 25.52C184.04 25.32 184.44 25.23 184.91 25.23C185.6 25.23 186.16 25.46 186.6 25.93C187.03 26.39 187.25 27.05 187.25 27.91C187.25 28.77 187.02 29.45 186.56 29.94C186.16 30.37 185.61 30.58 184.91 30.58C184.21 30.58 183.66 30.37 183.26 29.94C182.8 29.46 182.57 28.79 182.57 27.94L182.58 27.93ZM183.58 27.9C183.58 28.49 183.71 28.94 183.97 29.23C184.23 29.52 184.55 29.68 184.93 29.68C185.31 29.68 185.63 29.53 185.88 29.24C186.13 28.95 186.26 28.49 186.26 27.88C186.26 27.27 186.14 26.84 185.89 26.55C185.64 26.26 185.32 26.12 184.93 26.12C184.54 26.12 184.21 26.26 183.96 26.55C183.71 26.84 183.59 27.29 183.59 27.89L183.58 27.9Z" fill="#607B99"/>
<path d="M188.22 30.48V25.31H190.27C190.79 25.31 191.17 25.36 191.39 25.45C191.61 25.54 191.8 25.7 191.94 25.93C192.08 26.16 192.16 26.43 192.16 26.75C192.16 27.15 192.05 27.48 191.83 27.72C191.61 27.97 191.3 28.12 190.89 28.18C191.1 28.31 191.27 28.46 191.41 28.62C191.55 28.78 191.73 29.06 191.97 29.46L192.56 30.47H191.4L190.7 29.35C190.44 28.95 190.27 28.69 190.18 28.58C190.09 28.48 189.99 28.41 189.89 28.37C189.79 28.33 189.63 28.31 189.4 28.31H189.2V30.47H188.23L188.22 30.48ZM189.19 27.49H189.91C190.35 27.49 190.63 27.47 190.75 27.44C190.87 27.41 190.97 27.34 191.04 27.23C191.11 27.13 191.15 26.99 191.15 26.82C191.15 26.66 191.11 26.53 191.04 26.43C190.96 26.33 190.86 26.26 190.73 26.22C190.64 26.2 190.38 26.18 189.94 26.18H189.18V27.48L189.19 27.49Z" fill="#607B99"/>
<path d="M196.14 28.58L197.08 28.9C196.93 29.48 196.68 29.9 196.35 30.17C196.01 30.44 195.58 30.57 195.08 30.57C194.45 30.57 193.94 30.36 193.55 29.93C193.1 29.44 192.88 28.78 192.88 27.94C192.88 27.06 193.11 26.37 193.56 25.87C193.95 25.44 194.48 25.22 195.15 25.22C195.69 25.22 196.14 25.38 196.51 25.71C196.77 25.94 196.96 26.28 197.08 26.74L196.12 26.99C196.06 26.71 195.94 26.5 195.75 26.35C195.56 26.2 195.35 26.13 195.1 26.13C194.74 26.13 194.45 26.26 194.23 26.54C194.01 26.81 193.89 27.26 193.89 27.89C193.89 28.52 194 29 194.22 29.28C194.44 29.55 194.72 29.69 195.07 29.69C195.33 29.69 195.55 29.6 195.74 29.43C195.93 29.25 196.06 28.98 196.15 28.6L196.14 28.58Z" fill="#607B99"/>
<path d="M197.93 30.48V25.31H201.52V26.19H198.91V27.34H201.34V28.21H198.91V29.61H201.61V30.48H197.94H197.93Z" fill="#607B99"/>
<defs>
<linearGradient id="paint0_linear_6_1918" x1="-2.44" y1="9.02001" x2="143.01" y2="9.02001" gradientUnits="userSpaceOnUse">
<stop stop-color="#F0EFEF"/>
<stop offset="0.18" stop-color="#B9D2DF"/>
<stop offset="0.39" stop-color="#7DB4CF"/>
<stop offset="0.59" stop-color="#4E9CC2"/>
<stop offset="0.76" stop-color="#2D8BB9"/>
<stop offset="0.91" stop-color="#1880B4"/>
<stop offset="1" stop-color="#117DB2"/>
</linearGradient>
<linearGradient id="paint1_linear_6_1918" x1="7.57999" y1="6.08" x2="93.28" y2="6.08" gradientUnits="userSpaceOnUse">
<stop stop-color="#F0EFEF"/>
<stop offset="0.18" stop-color="#B9D2DF"/>
<stop offset="0.39" stop-color="#7DB4CF"/>
<stop offset="0.59" stop-color="#4E9CC2"/>
<stop offset="0.76" stop-color="#2D8BB9"/>
<stop offset="0.91" stop-color="#1880B4"/>
<stop offset="1" stop-color="#117DB2"/>
</linearGradient>
<linearGradient id="paint2_linear_6_1918" x1="42.27" y1="8.91997" x2="154.67" y2="8.91997" gradientUnits="userSpaceOnUse">
<stop stop-color="#F0EFEF"/>
<stop offset="0.18" stop-color="#B9D2DF"/>
<stop offset="0.39" stop-color="#7DB4CF"/>
<stop offset="0.59" stop-color="#4E9CC2"/>
<stop offset="0.76" stop-color="#2D8BB9"/>
<stop offset="0.91" stop-color="#1880B4"/>
<stop offset="1" stop-color="#117DB2"/>
</linearGradient>
<linearGradient id="paint3_linear_6_1918" x1="42.49" y1="6.02001" x2="121.03" y2="6.02001" gradientUnits="userSpaceOnUse">
<stop stop-color="#F0EFEF"/>
<stop offset="0.18" stop-color="#B9D2DF"/>
<stop offset="0.39" stop-color="#7DB4CF"/>
<stop offset="0.59" stop-color="#4E9CC2"/>
<stop offset="0.76" stop-color="#2D8BB9"/>
<stop offset="0.91" stop-color="#1880B4"/>
<stop offset="1" stop-color="#117DB2"/>
</linearGradient>
<linearGradient id="paint4_linear_6_1918" x1="17.28" y1="14.09" x2="157.95" y2="14.09" gradientUnits="userSpaceOnUse">
<stop stop-color="#F0EFEF"/>
<stop offset="0.18" stop-color="#B9D2DF"/>
<stop offset="0.39" stop-color="#7DB4CF"/>
<stop offset="0.59" stop-color="#4E9CC2"/>
<stop offset="0.76" stop-color="#2D8BB9"/>
<stop offset="0.91" stop-color="#1880B4"/>
<stop offset="1" stop-color="#117DB2"/>
</linearGradient>
<linearGradient id="paint5_linear_6_1918" x1="0.279997" y1="20.83" x2="115.26" y2="20.83" gradientUnits="userSpaceOnUse">
<stop stop-color="#F0EFEF"/>
<stop offset="0.18" stop-color="#B9D2DF"/>
<stop offset="0.39" stop-color="#7DB4CF"/>
<stop offset="0.59" stop-color="#4E9CC2"/>
<stop offset="0.76" stop-color="#2D8BB9"/>
<stop offset="0.91" stop-color="#1880B4"/>
<stop offset="1" stop-color="#117DB2"/>
</linearGradient>
<linearGradient id="paint6_linear_6_1918" x1="23.6" y1="28.95" x2="112.87" y2="28.95" gradientUnits="userSpaceOnUse">
<stop stop-color="#F0EFEF"/>
<stop offset="0.18" stop-color="#B9D2DF"/>
<stop offset="0.39" stop-color="#7DB4CF"/>
<stop offset="0.59" stop-color="#4E9CC2"/>
<stop offset="0.76" stop-color="#2D8BB9"/>
<stop offset="0.91" stop-color="#1880B4"/>
<stop offset="1" stop-color="#117DB2"/>
</linearGradient>
<linearGradient id="paint7_linear_6_1918" x1="26.84" y1="21.01" x2="141.83" y2="21.01" gradientUnits="userSpaceOnUse">
<stop stop-color="#F0EFEF"/>
<stop offset="0.18" stop-color="#B9D2DF"/>
<stop offset="0.39" stop-color="#7DB4CF"/>
<stop offset="0.59" stop-color="#4E9CC2"/>
<stop offset="0.76" stop-color="#2D8BB9"/>
<stop offset="0.91" stop-color="#1880B4"/>
<stop offset="1" stop-color="#117DB2"/>
</linearGradient>
</defs>
</svg>
